<svg xmlns:xlink="http://www.w3.org/1999/xlink" alt-text="The Most Preferred Destination for Diagnostics in Uganda

Ruby Hospital Kampala is a trusted destination for advanced Diagnostics and Radiology services in Uganda, including MRI Scan, CT Scan, 3D/4D Ultrasound, and X-ray. We provide every patient with a personalized, high-standard medical experience supported by expert clinicians and modern technology." baseProfile="tiny" xmlns="http://www.w3.org/2000/svg" viewBox="0 0 166 57" overflow="visible" xml:space="preserve" width="307"  height="105" >
    <path fill="#1A8443" d="M24.7 12.7c-1.4-5.1-5.1-8.5-5.1-8.5v8.5h-10v10.7h10v5.2s-1.9 1.7-3.8 3.7c1.8-1.1 3.1-2.5 3.8-3.1l.5-.6q2.4-2.8 3.5-5.2c2-4 1.9-7.7 1.1-10.7"></path>
    <path fill="#EEE30B" d="M19.6 4.2s3.2 3.3 4.6 8.5c.8 3.1.9 6.9-1 11.1a22 22 0 0 1-3.9 5.6c-.7.7-2.2 2-3.5 2.8l.1.3c.3-.2 1.7-.9 3.4-2.2a23 23 0 0 0 5.9-6.6c1.7-2.9 2.9-6.5 2.8-11v-.1c0-.8-.3-6.5 2.3-8.5"></path>
    <path fill="#DE2728" d="M39.3 36.4a3 3 0 0 0-3 3l.2.9L34 42v.6c.1-.1-16.9 10.7-19.9-2.4 0 0-.9-3.7 5.6-9.3V34h10.7V23.5h10V12.7h-10V4.2c-2.6 2-2.4 7.4-2.4 8.2v.1a22 22 0 0 1-8.7 17.6q-2.7 2-3.4 2.2c-1.9 2.3-3.9 5.4-3.6 8.2a9 9 0 0 0 10.9 7.6c2.5-.4 7.3-1.8 11.1-5l.5.1 2.6-1.6q1.5 1.1 3.4.3a2 2 0 0 0 1.1-1.1 3 3 0 0 0-2.6-4.4m0 4.7q-1.6-.1-1.8-1.8.1-1.6 1.8-1.8 1.6.1 1.8 1.8-.1 1.6-1.8 1.8m29.2-23.8h-5.3l-4-6.3v6.3H55V1h6.3c3.2 0 5.6 1.5 5.6 5 0 2.2-1.3 4.2-3.6 4.6zm-9.3-9h.4c1.4 0 2.9-.3 2.9-2 0-1.8-1.6-2-2.9-2h-.4zM83.7 1v9.1c0 2.1-.1 4.2-1.7 5.7a8 8 0 0 1-5.4 1.8 8 8 0 0 1-5.4-1.8c-1.6-1.6-1.7-3.6-1.7-5.7V1h4.2v8.6c0 2.1.2 4.4 2.9 4.4s2.9-2.3 2.9-4.4V1zm2.7 16.3V1h6c2.9 0 4.8 1.1 4.8 4.2q0 2.3-1.8 3.3 3.4.6 3.3 4.1c0 3.4-2.9 4.5-5.9 4.5h-6.4zm4.2-9.9h.5c1.1 0 2.3-.2 2.3-1.6s-1.3-1.6-2.5-1.6h-.3zm0 6.6h.5c1.3 0 3.4.1 3.4-1.7 0-2-2.1-1.8-3.5-1.8h-.4zm8.6-13h5.1l3 4.4 3-4.4h5.1l-6 8.5v7.8h-4.2V9.5zM65.3 27.4v-6.3h4.2v16.3h-4.2v-6.7h-6.1v6.7h-4.3V21.1h4.3v6.3zm35-2.1a5 5 0 0 0-2.8-1.1c-.8 0-1.8.5-1.8 1.4s1.1 1.3 1.9 1.6l1.1.3c2.3.7 4 1.8 4 4.4q.1 2.6-1.7 4.4a7 7 0 0 1-4.6 1.5q-3.1 0-5.7-1.9l1.8-3.4q1.6 1.5 3.8 1.7c1 0 2-.5 2-1.6s-1.7-1.6-2.6-1.9c-2.7-.8-4.4-1.4-4.4-4.6 0-3.3 2.4-5.5 5.6-5.5 1.6 0 3.6.5 5.1 1.3zm4.4-4.2h6.5c3.5 0 5.9 1.6 5.9 5.3q-.1 5.6-5.8 5.5h-2.4v5.4h-4.2zm4.2 7.5h.7c1.5 0 3 0 3-2s-1.4-2.1-3-2.1h-.7zm10-7.5h4.2v16.3h-4.2zm13.5 16.3h-4.2V24.7h-3.5v-3.6h11.2v3.6h-3.5zm7.9-2.8-1.1 2.8h-4.5l6.3-16.3h4.6l6.1 16.3h-4.5l-1.1-2.8zm2.9-8.4-1.8 5.2h3.5zm14 7.6h5v3.6H153V21.1h4.2zM54.9 41.7h1.6c1.8 0 3.3.7 3.3 2.7q0 1.3-1 1.9c1.2.3 1.9 1.4 1.9 2.5 0 2-1.6 2.8-3.5 2.8h-2.3zm1.1 4.4h.4c1.2 0 2.3-.1 2.3-1.7s-.9-1.7-2.3-1.7H56zm0 4.5h1.1c1.2 0 2.5-.3 2.5-1.8S58.1 47 56.9 47h-1v3.6zm6.9-1.9c0 1.1.8 2.1 2 2.1q1.3 0 1.9-1.3l.9.5a3 3 0 0 1-2.9 1.7c-1.8 0-3-1.4-3-3.2s1.1-3.3 3-3.3c2 0 3 1.6 2.9 3.5zm3.7-.9q-.3-1.5-1.8-1.6a2 2 0 0 0-1.9 1.6zm1.6-2.4h1.2l2.2 4.4 2-4.4h1.2l-4.6 9.7H69l2-4.1zm7 3.1c0-1.8 1.4-3.3 3.2-3.3s3.2 1.5 3.2 3.3-1.4 3.2-3.2 3.2c-1.8.1-3.2-1.4-3.2-3.2m1 0q.1 2.1 2.2 2.3 2-.2 2.2-2.3c0-1.2-.9-2.3-2.2-2.3a2.2 2.2 0 0 0-2.2 2.3m8-2.3q.7-.9 1.8-.9c1.7 0 2.1 1.2 2.1 2.7v3.7H87v-3.5c0-1-.1-1.9-1.3-1.9-1.4 0-1.5 1.3-1.5 2.4v2.9h-1.1v-6.2h1.1zm10.4 4.5q-.8 1-2.2 1c-1.8 0-3-1.5-3-3.2s1.1-3.3 3-3.3q1.3 0 2.1 1.1v-5.5h1.1v10.8h-1.1zm-4-2.3c0 1.2.7 2.4 2 2.4s2.1-1.1 2.1-2.3q0-2-2.1-2.2c-1.2-.1-2 1-2 2.1m17.3-2.7v-4h1.1v9.9h-1.1v-4.9h-5.1v4.9h-1.1v-9.9h1.1v4zm3.7 3c0 1.1.8 2.1 2 2.1q1.3 0 1.9-1.3l.9.5a3 3 0 0 1-2.9 1.7c-1.8 0-3-1.4-3-3.2s1.1-3.3 3-3.3c2 0 3 1.6 2.9 3.5zm3.7-.9q-.3-1.5-1.8-1.6a2 2 0 0 0-1.9 1.6zm8.2 3.8h-1.1v-.9q-.8 1-2.1 1c-1.8 0-3-1.5-3-3.2s1.1-3.3 3-3.3q1.3 0 2.1 1.1v-.9h1.1zm-5-3.2c0 1.2.7 2.4 2 2.4s2.1-1.1 2.1-2.3q0-2-2.1-2.2c-1.3-.1-2 1-2 2.1m7-7.6h1.1v10.8h-1.1zm4.1 10.8h-1.1v-5.2h-.6v-1h.6v-2.2h1.1v2.2h1.1v1h-1.1zm3.1-10.8v5.4a2 2 0 0 1 1.8-.9c1.7 0 2.1 1.2 2.1 2.7v3.7h-1.1v-3.5c0-1-.1-1.9-1.3-1.9-1.4 0-1.5 1.3-1.5 2.4v2.9h-1.1V40.8zm10.5 6.5q-.7-1-1.9-1a2.2 2.2 0 0 0-2.2 2.3c0 1.2.8 2.3 2.1 2.3q1.3 0 2-1.1v1.4q-.8.6-2 .6a3.2 3.2 0 0 1-3.3-3.3c0-1.8 1.5-3.3 3.3-3.3a3 3 0 0 1 1.9.6zm7.3 4.3h-1.1v-.9q-.8 1-2.1 1c-1.8 0-3-1.5-3-3.2s1.1-3.3 3-3.3q1.3 0 2.1 1.1v-.9h1.1zm-5.1-3.2c0 1.2.7 2.4 2 2.4s2.1-1.1 2.1-2.3q0-2-2.1-2.2c-1.2-.1-2 1-2 2.1m8-2.3q.5-.8 1.4-.8.5 0 .9.3l-.5 1-.6-.3c-1.2 0-1.2 1.5-1.2 2.3v3.1h-1.1v-6.2h1.1zm3.9 2.6c0 1.1.8 2.1 2 2.1q1.3 0 1.9-1.3l.9.5a3 3 0 0 1-2.9 1.7c-1.8 0-3-1.4-3-3.2s1.1-3.3 3-3.3c2 0 3 1.6 2.9 3.5zm3.8-.9q-.3-1.5-1.8-1.6a2 2 0 0 0-1.9 1.6zm-82.5-9 .1-1.2Q79 36 80 34.8q1-1.4 2.6-2.3l2.8-2q1.6-1.2 2.7-3c1.3-2.1.6-4.7-1.5-5.9a5 5 0 0 0-3.4-.4 6 6 0 0 0-3.4 2.4l-.1.2v-.1a6 6 0 0 1 3.3-3.4q2.5-1 4.9.3 1.8 1 2.3 2.9.6 2.4-.5 4.6a12 12 0 0 1-2.3 3.1q-1.9 1.8-4.1 3.2-1.6 1.1-3 2.5-.7.8-1 1.7-.1.3-.4.3zm-1.1-2.9v-.8q0-1.4-1.1-2.1l-2.3-1.9a11 11 0 0 1-2.2-2.1 5 5 0 0 1-.8-4.7 3 3 0 0 1 2.4-2.2q2.3-.6 4.1.8l1.2 1.1.1.2-.2-.1q-1.5-1-3.1-1.1a3 3 0 0 0-2.1.5q-1.4 1-1 2.7a6 6 0 0 0 1.7 3l2 1.9q.8.6 1.2 1.4.9 1.5.3 3.2z"></path>
</svg>